<?xml version="1.0" encoding="UTF-8"?>
<svg id="Layer_2" xmlns="http://www.w3.org/2000/svg" viewBox="0 0 36.1 59.68">
  <g id="Layer_1-2" data-name="Layer_1">
    <path d="M29.95,59.67c-3.4.04-6.18-2.65-6.24-6.03-.05-3.47,2.81-6.42,6.2-6.37,3.27.04,6.17,2.96,6.19,6.22.02,3.28-2.82,6.14-6.16,6.18Z"/>
    <path d="M24.32,41.76c.03,3.34-2.72,6.18-6.05,6.26-3.24.08-6.22-2.77-6.32-6.05-.1-3.38,2.81-6.35,6.23-6.34,3.37.01,6.12,2.76,6.15,6.12Z"/>
    <path d="M29.83,12.4c-3.38,0-6.11-2.75-6.12-6.15C23.69,2.9,26.47.04,29.79,0c3.35-.04,6.39,3,6.32,6.33-.08,3.32-2.92,6.07-6.27,6.06Z"/>
    <path d="M24.32,18.21c-.02,3.38-2.77,6.12-6.14,6.13-3.42.02-6.33-2.95-6.24-6.33.09-3.27,3.08-6.13,6.32-6.06,3.32.08,6.09,2.93,6.06,6.26Z"/>
    <path d="M6.18,23.73c3.41-.03,6.18,2.68,6.2,6.09.02,3.38-2.75,6.23-6.09,6.25C3.03,36.1.03,33.18,0,29.93c-.03-3.29,2.83-6.16,6.18-6.2Z"/>
  </g>
</svg>